<?xml version="1.0" encoding="UTF-8" standalone="no" ?>
<svg xmlns="http://www.w3.org/2000/svg" width="247.328px" height="60.856px" viewBox="0 -1958.4 13664.7 3362.4" xmlns:xlink="http://www.w3.org/1999/xlink"><defs><path id="MJX-5-NCM-I-1D444" d="M306-24C335-24 366-19 399-10C396-48 395-72 395-81C395-156 424-194 481-194C542-194 589-145 612-100C637-48 650-14 650 2C650 11 645 16 635 16C628 16 623 12 620 3C605-43 564-90 508-90C457-90 450-49 442 6C526 39 597 96 654 178C711 260 740 345 740 434C740 513 717 577 670 628C623 679 561 705 484 705C431 705 378 692 325 665C217 612 138 528 87 415C62 358 49 302 49 245C49 88 151-24 306-24M645 466C645 405 630 335 600 254C565 161 511 92 436 48C432 70 426 90 418 108C405 138 381 153 346 153C291 153 241 103 241 48C241 39 242 30 244 23C177 54 144 117 144 213C144 255 152 306 169 366C204 493 267 583 358 636C401 660 441 672 478 672C588 672 645 581 645 466M346 123C383 123 402 96 402 43C402 34 399 29 393 27C365 15 338 9 312 9C284 9 270 22 270 48C270 86 308 123 346 123Z"/><path id="MJX-5-NCM-N-6D" d="M315 413C361 413 384 378 384 307L384 79C384 60 381 48 374 44C367 40 344 38 307 38L307 0L423 3L538 0L538 38C501 38 479 40 472 44C465 48 461 60 461 79L461 259C461 339 513 413 590 413C637 413 660 378 660 307L660 79C660 60 656 48 649 44C642 40 619 38 582 38L582 0L698 3L813 0L813 38C781 38 760 39 750 42C740 45 736 52 736 64L736 251C736 298 734 331 731 350C721 411 676 442 597 442C534 442 487 413 455 354C441 413 397 442 322 442C259 442 211 412 179 352L179 442L32 431L32 393C68 393 90 390 98 384C106 378 109 365 109 342L109 79C109 60 105 48 98 44C91 40 69 38 32 38L32 0L148 3L263 0L263 38C226 38 203 40 196 44C189 48 185 60 185 79L185 259C185 340 238 413 315 413Z"/><path id="MJX-5-NCM-N-61" d="M483 91L483 150L451 150L451 91C451 52 440 32 419 32C399 32 387 57 387 77L387 274C387 309 383 335 376 353C352 412 283 448 213 448C136 448 60 405 60 333C60 300 77 283 110 283C143 283 159 299 159 332C159 361 144 378 113 381C135 406 168 419 211 419C273 419 311 362 311 297L311 264C233 259 174 247 133 228C66 197 32 154 32 97C32 71 42 49 61 32C93 3 137-11 193-11C252-11 294 14 320 65C327 27 355-6 398-6C451-6 483 36 483 91M200 18C154 18 116 52 116 98C116 191 213 231 311 236L311 141C311 74 267 18 200 18Z"/><path id="MJX-5-NCM-N-78" d="M418 3C441 4 474 3 516 0L516 38C463 38 443 39 422 67L292 235C335 288 364 324 380 343C408 375 447 392 498 393L498 431C470 429 442 428 414 428C377 428 344 429 315 431L315 393C334 391 344 382 344 366C344 357 339 346 330 334L272 262L198 357C193 364 190 369 190 372C190 385 202 392 225 393L225 431L114 428C88 427 56 428 17 431L17 393C53 393 76 390 86 385C96 380 112 363 134 334L229 210C180 147 150 109 139 96C107 57 65 38 12 38L12 0C49 3 77 4 98 3L195 0L195 38C176 41 167 50 167 65C167 69 168 74 170 79C176 92 203 126 251 183L323 89C334 75 340 65 343 59C343 46 331 39 307 38L307 0Z"/><path id="MJX-5-NCM-I-1D43B" d="M881 668C881 678 875 683 863 683L736 680L609 683C593 683 586 674 586 659C586 652 589 647 594 646C604 645 612 644 617 644C648 643 665 641 670 640C675 639 678 636 678 631C677 628 676 622 674 613L615 375L321 375L379 602C384 623 393 636 406 641C413 643 430 644 458 644C485 644 496 644 496 668C496 678 490 683 478 683L351 680L223 683C207 683 200 674 200 659C200 652 203 647 209 646C219 645 227 644 232 644C263 643 281 641 286 640C291 639 293 636 293 631C293 629 292 623 289 613L156 82C151 60 141 47 126 42C119 40 101 39 70 39C48 39 39 37 39 15C39 5 45 0 57 0L183 3L246 2C257 2 299 0 310 0C326 0 334 8 334 24C334 34 323 39 302 39C262 39 242 43 242 52C242 52 243 55 245 68L312 336L605 336L538 68C535 53 523 43 503 40C498 39 481 39 452 39C433 39 424 31 424 15C424 5 430 0 442 0L568 3L631 2C642 2 683 0 696 0C712 0 720 8 720 24C720 34 709 39 688 39C647 39 627 43 627 52C627 52 628 55 630 68L764 602C769 623 778 636 791 641C797 643 814 644 843 644C869 644 881 644 881 668Z"/><path id="MJX-5-NCM-N-3D" d="M698 367L80 367C64 367 56 359 56 344C56 329 64 321 80 321L698 321C714 321 722 329 722 344C722 356 711 367 698 367M698 179L80 179C64 179 56 171 56 156C56 141 64 133 80 133L698 133C714 133 722 141 722 156C722 169 711 179 698 179Z"/><path id="MJX-5-NCM-S3-28" d="M444-472C455-472 461-466 461-455C461-449 459-445 454-442C382-387 325-294 282-164C245-53 226 57 226 164L226 336C226 443 245 552 282 664C325 793 382 886 454 942C459 945 461 949 461 955C461 966 455 972 444 972C440 972 437 971 434 968C353 905 285 809 232 681C181 560 156 445 156 336L156 164C156 55 181-60 232-181C285-310 353-405 434-468C437-471 440-472 444-472Z"/><path id="MJX-5-NCM-N-394" d="M759 0C776 0 785 4 785 13L445 696C438 709 429 716 416 716C403 716 394 709 387 696L52 25C49 18 47 14 47 12C47 4 56 0 73 0M384 604L644 83L124 83Z"/><path id="MJX-5-NCM-N-2062" d=""/><path id="MJX-5-NCM-N-2218" d="M356 250C356 300 347 321 312 356C283 385 247 400 206 400C124 400 56 332 56 250C56 168 124 100 206 100C288 100 356 168 356 250M309 250C309 208 303 200 279 177C259 157 235 147 206 147C149 147 103 193 103 250C103 307 149 353 206 353C263 353 309 307 309 250Z"/><path id="MJX-5-NCM-N-72" d="M364 378C364 417 327 442 288 442C237 442 198 412 172 351L172 442L28 431L28 393C63 393 84 390 92 384C100 378 104 365 104 342L104 79C104 60 101 48 94 44C87 40 65 38 28 38L28 0L143 3C185 4 228 3 271 0L271 38L247 38C214 38 193 41 186 46C179 51 176 63 176 81L176 232C176 275 184 314 199 347C219 390 248 412 287 413C277 403 272 391 272 377C272 346 287 331 318 331C345 331 364 352 364 378Z"/><path id="MJX-5-NCM-N-65" d="M415 251C415 366 348 448 236 448C176 448 126 425 85 378C47 334 28 281 28 220C28 157 49 104 91 58C133 12 185-11 247-11C304-11 348 9 378 48C403 81 415 105 415 121C415 131 409 136 398 136C390 136 385 131 382 120C360 54 317 21 253 21C208 21 173 42 146 85C127 116 118 163 117 227L387 227C409 227 415 229 415 251M326 349C337 316 342 284 342 255L118 255C121 321 138 366 168 389C193 409 215 419 236 419C281 419 311 396 326 349Z"/><path id="MJX-5-NCM-N-63" d="M251 416C293 416 325 406 347 386C323 383 306 361 306 338C306 305 322 289 355 289C388 289 404 306 404 339C404 410 327 448 250 448C188 448 137 426 96 380C55 334 34 279 34 216C34 155 55 101 96 56C137 11 187-11 248-11C298-11 337 3 365 32C388 55 403 78 411 102C414 111 415 117 415 121C415 130 409 134 398 134C390 134 385 130 382 122C361 55 320 21 257 21C228 21 200 34 172 61C139 92 123 144 123 218C123 318 161 416 251 416Z"/><path id="MJX-5-NCM-N-74" d="M332 126L332 186L300 186L300 128C300 78 282 22 238 22C197 22 177 56 177 124L177 395L316 395L316 433L177 433L177 615L145 615C144 582 141 553 134 527C117 461 78 427 19 424L19 395L102 395L102 126C102 67 120 29 155 10C182-4 207-11 232-11C298-11 332 55 332 126Z"/><path id="MJX-5-NCM-N-69" d="M194 601C194 631 169 657 139 657C109 657 83 631 83 601C83 571 108 544 138 544C169 544 194 570 194 601M143 3L247 0L247 39C214 39 194 41 188 45C182 49 180 60 180 78L180 445L37 433L37 395C70 395 91 392 98 387C105 382 108 368 108 345L108 79C108 60 105 48 98 44C91 40 69 39 33 39L33 0Z"/><path id="MJX-5-NCM-N-6F" d="M249-11C311-11 363 11 406 55C449 99 471 152 471 214C471 277 450 332 408 378C366 424 313 448 250 448C187 448 135 424 92 378C49 332 28 277 28 214C28 152 49 99 92 55C135 11 188-11 249-11M250 21C202 21 166 42 141 85C125 113 117 159 117 222C117 283 125 327 140 355C164 398 200 419 249 419C296 419 332 398 357 357C374 329 382 284 382 222C382 106 348 21 250 21Z"/><path id="MJX-5-NCM-N-6E" d="M314 413C359 413 382 378 382 307L382 79C382 60 379 48 372 44C365 40 343 38 306 38L306 0L421 3L535 0L535 38C503 38 482 39 472 42C462 45 458 52 458 64L458 251C458 298 457 331 454 350C444 411 399 442 320 442C257 442 210 412 179 352L179 442L32 431L32 393C68 393 90 390 98 384C106 378 109 365 109 342L109 79C109 60 105 48 98 44C91 40 69 38 32 38L32 0L147 3L261 0L261 38C224 38 203 40 196 44C189 48 185 60 185 79L185 259C185 340 236 413 314 413Z"/><path id="MJX-5-NCM-I-1D447" d="M344 631C344 628 343 621 340 611L208 83C204 68 200 59 197 55C188 44 154 39 94 39C63 39 49 42 49 16C49 5 56 0 69 0C120 0 192 4 235 3L317 2C331 2 386 0 403 0C420 0 428 8 428 24C428 34 416 39 391 39C339 39 309 41 300 46C297 48 295 52 295 58L430 603C433 617 436 626 439 629C443 635 467 638 511 638C566 638 604 634 623 625C642 616 652 595 652 561C652 543 649 517 644 483C642 475 641 469 641 464C641 453 646 447 657 447C666 447 672 456 675 473L702 645C703 650 704 656 704 662C704 672 694 677 673 677L125 677C99 677 97 674 89 655L30 481C27 472 25 466 24 462C24 452 29 447 40 447C48 447 55 455 60 470C85 543 110 588 133 607C159 628 209 638 282 638L321 638C332 638 344 639 344 631Z"/><path id="MJX-5-NCM-I-1D436" d="M148 218C148 346 204 476 267 548C318 607 406 666 505 666C609 666 660 587 660 479C660 470 657 438 657 429C657 420 663 415 676 415C681 415 685 416 688 417C693 424 696 431 698 438L760 691C760 700 755 705 745 705C741 705 735 701 727 692L662 619C623 676 568 705 497 705C442 705 388 692 333 667C222 615 141 533 89 421C63 366 50 310 50 253C50 173 75 108 126 56C177 4 242-22 322-22C401-22 473 7 538 64C565 87 588 115 607 146C634 191 648 222 648 241C648 250 643 255 632 255C623 255 618 251 616 242C595 177 562 125 517 88C460 41 400 17 338 17C218 17 148 98 148 218Z"/><path id="MJX-5-NCM-N-2212" d="M698 270L80 270C64 270 56 263 56 250C56 237 64 230 80 230L698 230C714 230 722 237 722 250C722 262 710 270 698 270Z"/><path id="MJX-5-NCM-I-1D446" d="M133 157C133 181 136 201 141 217C141 227 136 232 125 232C120 232 116 230 114 228C109 223 52 8 52-8C52-17 57-22 67-22C72-22 79-17 88-6L133 47C168 1 224-22 300-22C366-22 424 5 476 58C528 111 554 170 554 236C554 283 538 323 505 355C490 368 470 379 445 388C422 393 400 399 378 405L312 423C279 432 254 469 254 509C254 552 271 589 306 621C341 653 380 669 423 669C515 669 561 619 561 520C561 502 557 482 557 465L557 462C560 455 565 451 573 451C582 451 588 459 592 474L645 691C645 700 640 705 630 705C625 705 618 700 609 689L566 637C538 682 491 705 424 705C361 705 304 681 254 634C202 586 176 531 176 468C176 396 223 339 282 323L387 296C441 281 475 262 475 195C475 149 457 108 422 72C387 36 347 17 302 17C204 17 133 60 133 157Z"/><path id="MJX-5-NCM-S3-29" d="M89-468C170-405 238-310 291-181C342-60 367 55 367 164L367 336C367 445 342 560 291 681C238 810 170 905 89 968C85 971 82 972 79 972C68 972 62 966 62 955C62 950 64 945 68 942C140 887 198 795 241 664C278 552 297 443 297 336L297 164C297 57 278-52 241-164C198-295 140-387 68-442C64-445 62-450 62-455C62-466 68-472 79-472C82-472 86-471 89-468Z"/><path id="MJX-5-NCM-N-31" d="M269 666C228 624 168 603 89 603L89 564C141 564 184 572 217 588L217 82C217 64 213 52 204 47C195 42 170 39 130 39L95 39L95 0C120 2 174 3 257 3C340 3 394 2 419 0L419 39L384 39C343 39 318 42 310 47C302 52 297 64 297 82L297 636C297 660 295 666 269 666Z"/></defs><g stroke="#000000" fill="#000000" stroke-width="0" transform="scale(1,-1)"><g data-mml-node="math" data-latex="Q_H^{\max} =   \frac{\left( \frac{\Delta H^\circ_{\mathrm{reaction}}}{T_C} - \Delta S^\circ_{\mathrm{reaction}} \right)}   {\left( \frac{1}{T_H} - \frac{1}{T_C} \right)}" data-semantic-type="relseq" data-semantic-role="equality" data-semantic-annotation="depth:1" data-semantic-id="47" data-semantic-children="4,46" data-semantic-content="5" data-semantic-attributes="latex:Q_H^{\max} =   \frac{\left( \frac{\Delta H^\circ_{\mathrm{reaction}}}{T_C} - \Delta S^\circ_{\mathrm{reaction}} \right)}   {\left( \frac{1}{T_H} - \frac{1}{T_C} \right)}" data-semantic-owns="4 5 46" aria-level="0" data-speech-node="true" data-semantic-structure="(47 (4 (3 0 1) 2) 5 (46 (30 6 (29 (18 (14 7 13 (12 (11 8 9) 10)) (17 15 16)) 19 (28 20 27 (25 (24 21 22) 23))) 26) (45 31 (44 (36 32 (35 33 34)) 37 (42 38 (41 39 40))) 43)))"><g data-mml-node="msubsup" data-latex="Q_H^{\max}" data-semantic-type="subsup" data-semantic-role="latinletter" data-semantic-annotation="depth:2" data-semantic-id="4" data-semantic-children="0,1,2" data-semantic-parent="47" data-semantic-attributes="latex:Q_H^{\max}" data-semantic-collapsed="(4 (3 0 1) 2)" data-semantic-owns="0 1 2" aria-level="1" data-speech-node="true"><g data-mml-node="mi" data-latex="Q" data-semantic-type="identifier" data-semantic-role="latinletter" data-semantic-font="italic" data-semantic-annotation="clearspeak:simple;nemeth:number;depth:4" data-semantic-id="0" data-semantic-parent="4" data-semantic-attributes="latex:Q" aria-level="3" data-speech-node="true"><use data-c="1D444" xlink:href="#MJX-5-NCM-I-1D444" xmlns:xlink="http://www.w3.org/1999/xlink"/></g><g data-mml-node="TeXAtom" transform="translate(824,413) scale(0.707)" data-mjx-texclass="ORD" data-latex="{\max}"><g data-mml-node="mo" data-mjx-texclass="OP" data-latex="\max" data-semantic-type="function" data-semantic-role="limit function" data-semantic-annotation="depth:3" data-semantic-id="2" data-semantic-parent="4" data-semantic-attributes="latex:{\max};texclass:ORD" aria-level="2" data-speech-node="true"><use data-c="6D" xlink:href="#MJX-5-NCM-N-6D" xmlns:xlink="http://www.w3.org/1999/xlink"/><use data-c="61" xlink:href="#MJX-5-NCM-N-61" xmlns:xlink="http://www.w3.org/1999/xlink" transform="translate(833,0)"/><use data-c="78" xlink:href="#MJX-5-NCM-N-78" xmlns:xlink="http://www.w3.org/1999/xlink" transform="translate(1333,0)"/></g></g><g data-mml-node="mi" transform="translate(824,-257.7) scale(0.707)" data-latex="H" data-semantic-type="identifier" data-semantic-role="simple function" data-semantic-font="italic" data-semantic-annotation="clearspeak:simple;depth:4" data-semantic-id="1" data-semantic-parent="4" data-semantic-attributes="latex:H" aria-level="3" data-speech-node="true"><use data-c="1D43B" xlink:href="#MJX-5-NCM-I-1D43B" xmlns:xlink="http://www.w3.org/1999/xlink"/></g></g><g data-mml-node="mo" data-latex="=" data-semantic-type="relation" data-semantic-role="equality" data-semantic-annotation="nemeth:number;depth:2" data-semantic-id="5" data-semantic-parent="47" data-semantic-attributes="latex:=" data-semantic-operator="relseq,=" aria-level="1" data-speech-node="true" transform="translate(2467.7,0)"><use data-c="3D" xlink:href="#MJX-5-NCM-N-3D" xmlns:xlink="http://www.w3.org/1999/xlink"/></g><g data-mml-node="mfrac" data-latex="\frac{\left( \frac{\Delta H^\circ_{\mathrm{reaction}}}{T_C} - \Delta S^\circ_{\mathrm{reaction}} \right)}   {\left( \frac{1}{T_H} - \frac{1}{T_C} \right)}" data-semantic-type="fraction" data-semantic-role="division" data-semantic-annotation="depth:2" data-semantic-id="46" data-semantic-children="30,45" data-semantic-parent="47" data-semantic-attributes="latex:\frac{\left( \frac{\Delta H^\circ_{\mathrm{reaction}}}{T_C} - \Delta S^\circ_{\mathrm{reaction}} \right)}   {\left( \frac{1}{T_H} - \frac{1}{T_C} \right)}" data-semantic-owns="30 45" aria-level="1" data-speech-node="true" transform="translate(3523.5,0)"><g data-mml-node="TeXAtom" data-mjx-texclass="INNER" data-latex-item="\left( \frac{\Delta H^\circ_{\mathrm{reaction}}}{T_C} - \Delta S^\circ_{\mathrm{reaction}} \right)" data-latex="\left( \frac{\Delta H^\circ_{\mathrm{reaction}}}{T_C} - \Delta S^\circ_{\mathrm{reaction}} \right)" data-semantic-type="fenced" data-semantic-role="leftright" data-semantic-annotation="depth:3" data-semantic-id="30" data-semantic-children="29" data-semantic-content="6,26" data-semantic-parent="46" data-semantic-attributes="latex:\left( \frac{\Delta H^\circ_{\mathrm{reaction}}}{T_C} - \Delta S^\circ_{\mathrm{reaction}} \right);texclass:INNER" data-semantic-owns="6 29 26" aria-level="2" data-speech-node="true" transform="translate(220,932)"><g data-mml-node="mo" data-mjx-texclass="OPEN" data-latex-item="\left(" data-latex="\left(" data-semantic-type="fence" data-semantic-role="open" data-semantic-annotation="depth:4" data-semantic-id="6" data-semantic-parent="30" data-semantic-attributes="latex:\left(;texclass:OPEN" data-semantic-operator="fenced" aria-level="3" data-speech-node="true"><use data-c="28" xlink:href="#MJX-5-NCM-S3-28" xmlns:xlink="http://www.w3.org/1999/xlink"/></g><g data-mml-node="mrow" data-semantic-added="true" data-semantic-type="infixop" data-semantic-role="subtraction" data-semantic-annotation="depth:4" data-semantic-id="29" data-semantic-children="18,28" data-semantic-content="19" data-semantic-parent="30" data-semantic-owns="18 19 28" aria-level="3" data-speech-node="true" transform="translate(523,0)"><g data-mml-node="mfrac" data-latex="\frac{\Delta H^\circ_{\mathrm{reaction}}}{T_C}" data-semantic-type="fraction" data-semantic-role="division" data-semantic-annotation="depth:5" data-semantic-id="18" data-semantic-children="14,17" data-semantic-parent="29" data-semantic-attributes="latex:\frac{\Delta H^\circ_{\mathrm{reaction}}}{T_C}" data-semantic-owns="14 17" aria-level="4" data-speech-node="true"><g data-mml-node="mrow" transform="translate(220,520.2) scale(0.707)" data-latex="\Delta H^\circ_{\mathrm{reaction}}" data-semantic-type="infixop" data-semantic-role="implicit" data-semantic-annotation="clearspeak:unit;depth:6" data-semantic-id="14" data-semantic-children="7,12" data-semantic-content="13" data-semantic-parent="18" data-semantic-attributes="latex:\Delta H^\circ_{\mathrm{reaction}}" data-semantic-owns="7 13 12" aria-level="5" data-speech-node="true"><g data-mml-node="mi" data-latex="\Delta" data-semantic-type="identifier" data-semantic-role="greekletter" data-semantic-font="normal" data-semantic-annotation="clearspeak:simple;depth:7" data-semantic-id="7" data-semantic-parent="14" data-semantic-attributes="latex:\Delta" aria-level="6" data-speech-node="true"><use data-c="394" xlink:href="#MJX-5-NCM-N-394" xmlns:xlink="http://www.w3.org/1999/xlink"/></g><g data-mml-node="mo" data-semantic-type="operator" data-semantic-role="multiplication" data-semantic-annotation="depth:7" data-semantic-id="13" data-semantic-parent="14" data-semantic-added="true" data-semantic-operator="infixop,⁢" aria-level="6" data-speech-node="true" transform="translate(833,0)"><use data-c="2062" xlink:href="#MJX-5-NCM-N-2062" xmlns:xlink="http://www.w3.org/1999/xlink"/></g><g data-mml-node="msubsup" data-latex="H^circ_{\mathrm{reaction}}" data-semantic-type="subsup" data-semantic-role="simple function" data-semantic-annotation="depth:7" data-semantic-id="12" data-semantic-children="8,9,10" data-semantic-parent="14" data-semantic-attributes="latex:H^circ_{\mathrm{reaction}}" data-semantic-collapsed="(12 (11 8 9) 10)" data-semantic-owns="8 9 10" aria-level="6" data-speech-node="true" transform="translate(833,0)"><g data-mml-node="mi" data-latex="H" data-semantic-type="identifier" data-semantic-role="simple function" data-semantic-font="italic" data-semantic-annotation="clearspeak:simple;depth:9" data-semantic-id="8" data-semantic-parent="12" data-semantic-attributes="latex:H" aria-level="8" data-speech-node="true"><use data-c="1D43B" xlink:href="#MJX-5-NCM-I-1D43B" xmlns:xlink="http://www.w3.org/1999/xlink"/></g><g data-mml-node="mo" transform="translate(966.5,363) scale(0.707)" data-latex="circ" data-semantic-type="operator" data-semantic-role="multiplication" data-semantic-annotation="depth:8" data-semantic-id="10" data-semantic-parent="12" data-semantic-attributes="latex:circ" aria-level="7" data-speech-node="true"><use data-c="2218" xlink:href="#MJX-5-NCM-N-2218" xmlns:xlink="http://www.w3.org/1999/xlink"/></g><g data-mml-node="TeXAtom" transform="translate(864,-247) scale(0.707)" data-mjx-texclass="ORD" data-latex="{\mathrm{reaction}}"><g data-mml-node="TeXAtom" data-mjx-texclass="ORD" data-latex="\mathrm{reaction}"><g data-mml-node="mi" data-latex="reaction" data-semantic-type="identifier" data-semantic-role="unknown" data-semantic-font="normal" data-semantic-annotation="depth:9" data-semantic-id="9" data-semantic-parent="12" data-semantic-attributes="latex:{\mathrm{reaction}};texclass:ORD" aria-level="8" data-speech-node="true"><use data-c="72" xlink:href="#MJX-5-NCM-N-72" xmlns:xlink="http://www.w3.org/1999/xlink"/><use data-c="65" xlink:href="#MJX-5-NCM-N-65" xmlns:xlink="http://www.w3.org/1999/xlink" transform="translate(392,0)"/><use data-c="61" xlink:href="#MJX-5-NCM-N-61" xmlns:xlink="http://www.w3.org/1999/xlink" transform="translate(836,0)"/><use data-c="63" xlink:href="#MJX-5-NCM-N-63" xmlns:xlink="http://www.w3.org/1999/xlink" transform="translate(1336,0)"/><use data-c="74" xlink:href="#MJX-5-NCM-N-74" xmlns:xlink="http://www.w3.org/1999/xlink" transform="translate(1780,0)"/><use data-c="69" xlink:href="#MJX-5-NCM-N-69" xmlns:xlink="http://www.w3.org/1999/xlink" transform="translate(2169,0)"/><use data-c="6F" xlink:href="#MJX-5-NCM-N-6F" xmlns:xlink="http://www.w3.org/1999/xlink" transform="translate(2447,0)"/><use data-c="6E" xlink:href="#MJX-5-NCM-N-6E" xmlns:xlink="http://www.w3.org/1999/xlink" transform="translate(2947,0)"/></g></g></g></g></g><g data-mml-node="msub" transform="translate(1287.6,-345) scale(0.707)" data-latex="T_C" data-semantic-type="subscript" data-semantic-role="latinletter" data-semantic-annotation="depth:6" data-semantic-id="17" data-semantic-children="15,16" data-semantic-parent="18" data-semantic-attributes="latex:T_C" data-semantic-owns="15 16" aria-level="5" data-speech-node="true"><g data-mml-node="mi" data-latex="T" data-semantic-type="identifier" data-semantic-role="latinletter" data-semantic-font="italic" data-semantic-annotation="clearspeak:simple;depth:7" data-semantic-id="15" data-semantic-parent="17" data-semantic-attributes="latex:T" aria-level="6" data-speech-node="true"><use data-c="1D447" xlink:href="#MJX-5-NCM-I-1D447" xmlns:xlink="http://www.w3.org/1999/xlink"/></g><g data-mml-node="mi" transform="translate(617,-150) scale(0.707)" data-latex="C" data-semantic-type="identifier" data-semantic-role="latinletter" data-semantic-font="italic" data-semantic-annotation="clearspeak:simple;depth:7" data-semantic-id="16" data-semantic-parent="17" data-semantic-attributes="latex:C" aria-level="6" data-speech-node="true"><use data-c="1D436" xlink:href="#MJX-5-NCM-I-1D436" xmlns:xlink="http://www.w3.org/1999/xlink"/></g></g><rect width="3186.8" height="60" x="120" y="220"/></g><g data-mml-node="mo" data-latex="-" data-semantic-type="operator" data-semantic-role="subtraction" data-semantic-annotation="depth:5" data-semantic-id="19" data-semantic-parent="29" data-semantic-attributes="latex:-" data-semantic-operator="infixop,−" aria-level="4" data-speech-node="true" transform="translate(3649,0)"><use data-c="2212" xlink:href="#MJX-5-NCM-N-2212" xmlns:xlink="http://www.w3.org/1999/xlink"/></g><g data-mml-node="mrow" data-semantic-added="true" data-semantic-type="infixop" data-semantic-role="implicit" data-semantic-annotation="clearspeak:unit;depth:5" data-semantic-id="28" data-semantic-children="20,25" data-semantic-content="27" data-semantic-parent="29" data-semantic-owns="20 27 25" aria-level="4" data-speech-node="true" transform="translate(4649.3,0)"><g data-mml-node="mi" data-latex="\Delta" data-semantic-type="identifier" data-semantic-role="greekletter" data-semantic-font="normal" data-semantic-annotation="clearspeak:simple;depth:6" data-semantic-id="20" data-semantic-parent="28" data-semantic-attributes="latex:\Delta" aria-level="5" data-speech-node="true"><use data-c="394" xlink:href="#MJX-5-NCM-N-394" xmlns:xlink="http://www.w3.org/1999/xlink"/></g><g data-mml-node="mo" data-semantic-type="operator" data-semantic-role="multiplication" data-semantic-annotation="depth:6" data-semantic-id="27" data-semantic-parent="28" data-semantic-added="true" data-semantic-operator="infixop,⁢" aria-level="5" data-speech-node="true" transform="translate(833,0)"><use data-c="2062" xlink:href="#MJX-5-NCM-N-2062" xmlns:xlink="http://www.w3.org/1999/xlink"/></g><g data-mml-node="msubsup" data-latex="S^circ_{\mathrm{reaction}}" data-semantic-type="subsup" data-semantic-role="latinletter" data-semantic-annotation="depth:6" data-semantic-id="25" data-semantic-children="21,22,23" data-semantic-parent="28" data-semantic-attributes="latex:S^circ_{\mathrm{reaction}}" data-semantic-collapsed="(25 (24 21 22) 23)" data-semantic-owns="21 22 23" aria-level="5" data-speech-node="true" transform="translate(833,0)"><g data-mml-node="mi" data-latex="S" data-semantic-type="identifier" data-semantic-role="latinletter" data-semantic-font="italic" data-semantic-annotation="clearspeak:simple;depth:8" data-semantic-id="21" data-semantic-parent="25" data-semantic-attributes="latex:S" aria-level="7" data-speech-node="true"><use data-c="1D446" xlink:href="#MJX-5-NCM-I-1D446" xmlns:xlink="http://www.w3.org/1999/xlink"/></g><g data-mml-node="mo" transform="translate(729.6,363) scale(0.707)" data-latex="circ" data-semantic-type="operator" data-semantic-role="multiplication" data-semantic-annotation="depth:7" data-semantic-id="23" data-semantic-parent="25" data-semantic-attributes="latex:circ" aria-level="6" data-speech-node="true"><use data-c="2218" xlink:href="#MJX-5-NCM-N-2218" xmlns:xlink="http://www.w3.org/1999/xlink"/></g><g data-mml-node="TeXAtom" transform="translate(646,-247) scale(0.707)" data-mjx-texclass="ORD" data-latex="{\mathrm{reaction}}"><g data-mml-node="TeXAtom" data-mjx-texclass="ORD" data-latex="\mathrm{reaction}"><g data-mml-node="mi" data-latex="reaction" data-semantic-type="identifier" data-semantic-role="unknown" data-semantic-font="normal" data-semantic-annotation="depth:8" data-semantic-id="22" data-semantic-parent="25" data-semantic-attributes="latex:{\mathrm{reaction}};texclass:ORD" aria-level="7" data-speech-node="true"><use data-c="72" xlink:href="#MJX-5-NCM-N-72" xmlns:xlink="http://www.w3.org/1999/xlink"/><use data-c="65" xlink:href="#MJX-5-NCM-N-65" xmlns:xlink="http://www.w3.org/1999/xlink" transform="translate(392,0)"/><use data-c="61" xlink:href="#MJX-5-NCM-N-61" xmlns:xlink="http://www.w3.org/1999/xlink" transform="translate(836,0)"/><use data-c="63" xlink:href="#MJX-5-NCM-N-63" xmlns:xlink="http://www.w3.org/1999/xlink" transform="translate(1336,0)"/><use data-c="74" xlink:href="#MJX-5-NCM-N-74" xmlns:xlink="http://www.w3.org/1999/xlink" transform="translate(1780,0)"/><use data-c="69" xlink:href="#MJX-5-NCM-N-69" xmlns:xlink="http://www.w3.org/1999/xlink" transform="translate(2169,0)"/><use data-c="6F" xlink:href="#MJX-5-NCM-N-6F" xmlns:xlink="http://www.w3.org/1999/xlink" transform="translate(2447,0)"/><use data-c="6E" xlink:href="#MJX-5-NCM-N-6E" xmlns:xlink="http://www.w3.org/1999/xlink" transform="translate(2947,0)"/></g></g></g></g></g></g><g data-mml-node="mo" data-mjx-texclass="CLOSE" data-latex-item="\right)" data-latex="\right)" data-semantic-type="fence" data-semantic-role="close" data-semantic-annotation="depth:4" data-semantic-id="26" data-semantic-parent="30" data-semantic-attributes="latex:\right);texclass:CLOSE" data-semantic-operator="fenced" aria-level="3" data-speech-node="true" transform="translate(9178.3,0)"><use data-c="29" xlink:href="#MJX-5-NCM-S3-29" xmlns:xlink="http://www.w3.org/1999/xlink"/></g></g><g data-mml-node="TeXAtom" data-mjx-texclass="INNER" data-latex-item="\left( \frac{1}{T_H} - \frac{1}{T_C} \right)" data-latex="\left( \frac{1}{T_H} - \frac{1}{T_C} \right)" data-semantic-type="fenced" data-semantic-role="leftright" data-semantic-annotation="depth:3" data-semantic-id="45" data-semantic-children="44" data-semantic-content="31,43" data-semantic-parent="46" data-semantic-attributes="latex:\left( \frac{1}{T_H} - \frac{1}{T_C} \right);texclass:INNER" data-semantic-owns="31 44 43" aria-level="2" data-speech-node="true" transform="translate(2614.5,-932)"><g data-mml-node="mo" data-mjx-texclass="OPEN" data-latex-item="\left(" data-latex="\left(" data-semantic-type="fence" data-semantic-role="open" data-semantic-annotation="depth:4" data-semantic-id="31" data-semantic-parent="45" data-semantic-attributes="latex:\left(;texclass:OPEN" data-semantic-operator="fenced" aria-level="3" data-speech-node="true"><use data-c="28" xlink:href="#MJX-5-NCM-S3-28" xmlns:xlink="http://www.w3.org/1999/xlink"/></g><g data-mml-node="mrow" data-semantic-added="true" data-semantic-type="infixop" data-semantic-role="subtraction" data-semantic-annotation="depth:4" data-semantic-id="44" data-semantic-children="36,42" data-semantic-content="37" data-semantic-parent="45" data-semantic-owns="36 37 42" aria-level="3" data-speech-node="true" transform="translate(523,0)"><g data-mml-node="mfrac" data-latex="\frac{1}{T_H}" data-semantic-type="fraction" data-semantic-role="division" data-semantic-annotation="depth:5" data-semantic-id="36" data-semantic-children="32,35" data-semantic-parent="44" data-semantic-attributes="latex:\frac{1}{T_H}" data-semantic-owns="32 35" aria-level="4" data-speech-node="true"><g data-mml-node="mn" transform="translate(499.3,394) scale(0.707)" data-latex="1" data-semantic-type="number" data-semantic-role="integer" data-semantic-font="normal" data-semantic-annotation="clearspeak:simple;depth:6" data-semantic-id="32" data-semantic-parent="36" data-semantic-attributes="latex:1" aria-level="5" data-speech-node="true"><use data-c="31" xlink:href="#MJX-5-NCM-N-31" xmlns:xlink="http://www.w3.org/1999/xlink"/></g><g data-mml-node="msub" transform="translate(220,-345) scale(0.707)" data-latex="T_H" data-semantic-type="subscript" data-semantic-role="latinletter" data-semantic-annotation="depth:6" data-semantic-id="35" data-semantic-children="33,34" data-semantic-parent="36" data-semantic-attributes="latex:T_H" data-semantic-owns="33 34" aria-level="5" data-speech-node="true"><g data-mml-node="mi" data-latex="T" data-semantic-type="identifier" data-semantic-role="latinletter" data-semantic-font="italic" data-semantic-annotation="clearspeak:simple;depth:7" data-semantic-id="33" data-semantic-parent="35" data-semantic-attributes="latex:T" aria-level="6" data-speech-node="true"><use data-c="1D447" xlink:href="#MJX-5-NCM-I-1D447" xmlns:xlink="http://www.w3.org/1999/xlink"/></g><g data-mml-node="mi" transform="translate(617,-150) scale(0.707)" data-latex="H" data-semantic-type="identifier" data-semantic-role="simple function" data-semantic-font="italic" data-semantic-annotation="clearspeak:simple;depth:7" data-semantic-id="34" data-semantic-parent="35" data-semantic-attributes="latex:H" aria-level="6" data-speech-node="true"><use data-c="1D43B" xlink:href="#MJX-5-NCM-I-1D43B" xmlns:xlink="http://www.w3.org/1999/xlink"/></g></g><rect width="1112.1" height="60" x="120" y="220"/></g><g data-mml-node="mo" data-latex="-" data-semantic-type="operator" data-semantic-role="subtraction" data-semantic-annotation="depth:5" data-semantic-id="37" data-semantic-parent="44" data-semantic-attributes="latex:-" data-semantic-operator="infixop,−" aria-level="4" data-speech-node="true" transform="translate(1574.4,0)"><use data-c="2212" xlink:href="#MJX-5-NCM-N-2212" xmlns:xlink="http://www.w3.org/1999/xlink"/></g><g data-mml-node="mfrac" data-latex="\frac{1}{T_C}" data-semantic-type="fraction" data-semantic-role="division" data-semantic-annotation="depth:5" data-semantic-id="42" data-semantic-children="38,41" data-semantic-parent="44" data-semantic-attributes="latex:\frac{1}{T_C}" data-semantic-owns="38 41" aria-level="4" data-speech-node="true" transform="translate(2574.6,0)"><g data-mml-node="mn" transform="translate(469,394) scale(0.707)" data-latex="1" data-semantic-type="number" data-semantic-role="integer" data-semantic-font="normal" data-semantic-annotation="clearspeak:simple;depth:6" data-semantic-id="38" data-semantic-parent="42" data-semantic-attributes="latex:1" aria-level="5" data-speech-node="true"><use data-c="31" xlink:href="#MJX-5-NCM-N-31" xmlns:xlink="http://www.w3.org/1999/xlink"/></g><g data-mml-node="msub" transform="translate(220,-345) scale(0.707)" data-latex="T_C" data-semantic-type="subscript" data-semantic-role="latinletter" data-semantic-annotation="depth:6" data-semantic-id="41" data-semantic-children="39,40" data-semantic-parent="42" data-semantic-attributes="latex:T_C" data-semantic-owns="39 40" aria-level="5" data-speech-node="true"><g data-mml-node="mi" data-latex="T" data-semantic-type="identifier" data-semantic-role="latinletter" data-semantic-font="italic" data-semantic-annotation="clearspeak:simple;depth:7" data-semantic-id="39" data-semantic-parent="41" data-semantic-attributes="latex:T" aria-level="6" data-speech-node="true"><use data-c="1D447" xlink:href="#MJX-5-NCM-I-1D447" xmlns:xlink="http://www.w3.org/1999/xlink"/></g><g data-mml-node="mi" transform="translate(617,-150) scale(0.707)" data-latex="C" data-semantic-type="identifier" data-semantic-role="latinletter" data-semantic-font="italic" data-semantic-annotation="clearspeak:simple;depth:7" data-semantic-id="40" data-semantic-parent="41" data-semantic-attributes="latex:C" aria-level="6" data-speech-node="true"><use data-c="1D436" xlink:href="#MJX-5-NCM-I-1D436" xmlns:xlink="http://www.w3.org/1999/xlink"/></g></g><rect width="1051.6" height="60" x="120" y="220"/></g></g><g data-mml-node="mo" data-mjx-texclass="CLOSE" data-latex-item="\right)" data-latex="\right)" data-semantic-type="fence" data-semantic-role="close" data-semantic-annotation="depth:4" data-semantic-id="43" data-semantic-parent="45" data-semantic-attributes="latex:\right);texclass:CLOSE" data-semantic-operator="fenced" aria-level="3" data-speech-node="true" transform="translate(4389.2,0)"><use data-c="29" xlink:href="#MJX-5-NCM-S3-29" xmlns:xlink="http://www.w3.org/1999/xlink"/></g></g><rect width="9901.3" height="60" x="120" y="220"/></g></g></g></svg>